:SAMPLES-PER-SECOND 30
:FULLY-SPECIFIED
:DEGREES
124
root  -32.2368 40.2982 22.8178 -10.593 64.6982 -11.0109
RightUpLeg  -3.53889 -11.6129 -2.88444
RightLeg  14.8749 -6.28232 4.40467
RightFoot  -8.7522 -0.196185 6.0189
RightToes  -5.8209e-011 0 -3.6325e-017
Spine  7.99158 0.404483 14.7702
Spine1  5.91684 2.72455 -4.63573
HEad  -6.65904 0.411522 -3.3072
LeftShoulder1  7.3022 -10.4973 -45.4505
LeftArm  -3.6041 21.7739 -28.9729
LeftForeArm  23.1033 -23.9677 -3.90973
LeftHand  -0.244104 0.0205437 5.32207
RightShoulder  5.66872 9.09733 38.9035
RightArm  1.89928 -0.644496 32.3204
RightForeArm  -1.73098 26.4658 5.77642
RightHand  -0.569891 -0.852332 -14.5386
LeftUpLeg  -20.9793 6.90035 2.48873
LeftLeg  56.499 0.993387 2.14759
LeftFoot  2.28148 0.271247 -2.38711
LeftToes  1.76439e-010 -1.07097e-011 2.32476e-011
125
root  -31.4556 40.4657 23.5579 -8.91066 66.3872 -9.20001
RightUpLeg  -0.565996 -10.8697 -3.92052
RightLeg  12.737 -8.23323 4.71107
RightFoot  -9.45387 -0.163582 6.03758
RightToes  -5.8209e-011 0 -3.6325e-017
Spine  8.04952 0.843354 14.4796
Spine1  5.83143 3.32324 -5.89481
HEad  -6.77848 -1.97485 -3.53711
LeftShoulder1  7.38447 -10.6264 -45.5474
LeftArm  -3.88174 22.5305 -28.9823
LeftForeArm  22.8875 -23.4365 -3.83521
LeftHand  -0.244104 0.0205437 5.32207
RightShoulder  5.65704 9.0693 38.9103
RightArm  1.3601 0.645023 32.8675
RightForeArm  -1.31851 29.786 6.5584
RightHand  -0.543685 -1.02642 -14.4066
LeftUpLeg  -23.0372 9.97079 0.27116
LeftLeg  49.9168 0.612385 1.20107
LeftFoot  0.891624 0.211976 -2.02279
LeftToes  1.76439e-010 -1.07097e-011 2.32476e-011
126
root  -30.6453 40.5318 24.2473 -7.40701 67.9848 -7.71704
RightUpLeg  2.19531 -10.6019 -4.56719
RightLeg  10.771 -9.53482 4.94848
RightFoot  -10.4588 -0.121545 6.6198
RightToes  -5.8209e-011 0 -3.6325e-017
Spine  8.08744 1.18301 14.237
Spine1  5.78303 3.76997 -6.92405
HEad  -6.77568 -3.83737 -3.80166
LeftShoulder1  7.40287 -10.6313 -45.6483
LeftArm  -4.39063 23.0132 -29.3166
LeftForeArm  22.4349 -22.178 -3.78075
LeftHand  -0.244104 0.0205437 5.32207
RightShoulder  5.68395 9.1092 38.9783
RightArm  1.31651 1.8682 33.0636
RightForeArm  -0.044374 32.9335 7.30199
RightHand  -0.537624 -1.01732 -14.2161
LeftUpLeg  -24.2737 13.7244 -2.24845
LeftLeg  41.2171 1.05443 1.35178
LeftFoot  -0.89311 0.158149 -1.67741
LeftToes  1.76439e-010 -1.07097e-011 2.32476e-011
127
root  -29.7919 40.5057 24.8802 -6.755 69.6661 -7.28224
RightUpLeg  4.64604 -10.46 -4.64621
RightLeg  9.12193 -10.7834 5.07696
RightFoot  -11.3453 -0.0773951 7.31016
RightToes  -5.8209e-011 0 -3.6325e-017
Spine  7.95472 1.33646 14.2528
Spine1  5.80232 3.9595 -7.62575
HEad  -6.81585 -5.37052 -3.81678
LeftShoulder1  7.38703 -10.5891 -45.6881
LeftArm  -5.37723 23.4523 -29.9932
LeftForeArm  22.2358 -20.3537 -3.90336
LeftHand  -0.244104 0.0205437 5.32207
RightShoulder  5.68737 9.13274 38.924
RightArm  1.62321 3.00584 33.1676
RightForeArm  1.50687 35.457 7.91271
RightHand  -0.504913 -1.18688 -13.8686
LeftUpLeg  -24.8261 18.5743 -5.20407
LeftLeg  30.5595 1.23475 1.41084
LeftFoot  -1.30671 0.160297 -1.73163
LeftToes  1.76439e-010 -1.07097e-011 2.32476e-011
128
root  -28.8892 40.461 25.46 -6.69749 71.0723 -7.36845
RightUpLeg  7.13599 -10.1386 -4.45262
RightLeg  7.52823 -12.188 5.15978
RightFoot  -11.8184 -0.0504086 7.29972
RightToes  -5.8209e-011 0 -3.6325e-017
Spine  7.81237 1.45695 14.2302
Spine1  6.00786 4.11792 -8.06331
HEad  -6.87447 -6.80185 -3.61496
LeftShoulder1  7.40933 -10.6067 -45.7716
LeftArm  -6.79284 24.1034 -30.7643
LeftForeArm  22.5247 -18.3559 -4.16867
LeftHand  -0.244104 0.0205437 5.32207
RightShoulder  5.69244 9.18045 38.8004
RightArm  2.26492 3.94844 33.1455
RightForeArm  2.46342 37.0769 8.3301
RightHand  -0.453329 -1.51533 -13.4664
LeftUpLeg  -24.0377 22.4479 -7.45204
LeftLeg  18.5519 2.97207 0.152582
LeftFoot  -0.163441 0.167412 -1.7118
LeftToes  1.76439e-010 -1.07097e-011 2.32476e-011
129
root  -27.9087 40.3536 26.0145 -6.67426 72.1166 -7.25726
RightUpLeg  9.73674 -9.93406 -4.47605
RightLeg  6.43719 -12.9843 5.30677
RightFoot  -12.6217 -0.00100269 7.47686
RightToes  -5.8209e-011 0 -3.6325e-017
Spine  7.77577 1.56714 13.7486
Spine1  6.33201 4.26058 -8.11339
HEad  -6.74205 -7.99538 -3.24844
LeftShoulder1  7.42673 -10.614 -45.8584
LeftArm  -8.08931 25.0518 -31.4337
LeftForeArm  23.1706 -16.5577 -4.43484
LeftHand  -0.244104 0.0205437 5.32207
RightShoulder  5.75196 9.30256 38.8354
RightArm  3.32484 4.6915 32.9959
RightForeArm  3.12064 37.5333 8.42885
RightHand  -0.432797 -1.59084 -13.1013
LeftUpLeg  -20.78 14.93 -4.15912
LeftLeg  6.5197 16.8664 -4.57237
LeftFoot  0.720903 0.0832892 -0.821966
LeftToes  1.76439e-010 -1.07097e-011 2.32476e-011
130
root  -26.8106 40.1281 26.5565 -7.21365 73.1664 -7.56802
RightUpLeg  12.2692 -9.99762 -4.67475
RightLeg  6.34237 -12.9873 5.50582
RightFoot  -13.9677 0.108857 8.83188
RightToes  -5.8209e-011 0 -3.6325e-017
Spine  7.59484 1.59956 13.033
Spine1  6.67395 4.21318 -7.82488
HEad  -6.3932 -9.02641 -2.61448
LeftShoulder1  7.37704 -10.5431 -45.7782
LeftArm  -8.91282 26.0132 -31.9613
LeftForeArm  24.273 -14.9047 -4.68773
LeftHand  -0.244104 0.0205437 5.32207
RightShoulder  5.83374 9.40958 39.0852
RightArm  4.55521 5.12149 32.9355
RightForeArm  3.968 36.7743 8.15196
RightHand  -0.456126 -1.30065 -12.8606
LeftUpLeg  -18.2632 3.34892 -0.095561
LeftLeg  -3.30324 32.8973 -10.3152
LeftFoot  0.115505 -0.0250457 0.240938
LeftToes  1.76439e-010 -1.07097e-011 2.32476e-011
131
root  -25.5695 39.8428 27.0806 -8.64116 74.226 -8.76682
RightUpLeg  14.5032 -10.4538 -4.90435
RightLeg  7.40873 -12.6023 5.51974
RightFoot  -15 0.225864 10.2756
RightToes  -5.8209e-011 0 -3.6325e-017
Spine  6.96885 1.65536 12.5125
Spine1  7.2382 4.15283 -7.48738
HEad  -6.03255 -10.2973 -1.63492
LeftShoulder1  7.30278 -10.4778 -45.5201
LeftArm  -9.50637 26.7803 -32.3177
LeftForeArm  25.8812 -13.2784 -4.90871
LeftHand  -0.244104 0.0205437 5.32207
RightShoulder  5.88517 9.43019 39.3958
RightArm  5.48666 4.8817 33.1148
RightForeArm  4.49901 35.0365 7.61997
RightHand  -0.4928 -0.963392 -12.8739
LeftUpLeg  -18.0423 3.41046 -0.832224
LeftLeg  -4.73548 33.9635 -10.4999
LeftFoot  -1.01662 -0.0459973 0.588493
LeftToes  1.76439e-010 -1.07097e-011 2.32476e-011
